<svg xmlns="http://www.w3.org/2000/svg" xmlns:xlink="http://www.w3.org/1999/xlink" viewBox="0 0 410.284 107.51" data-test="Lazada" style="display: block; width: 120px; height: 64px;"><defs><linearGradient id="lazada_comp_svg__d"><stop offset="0" stop-color="#6fc4ea"></stop><stop offset="1" stop-color="#bce4f5"></stop></linearGradient><linearGradient id="lazada_comp_svg__c"><stop offset="0" stop-color="#f8ad1b"></stop><stop offset="1" stop-color="#fec80d"></stop></linearGradient><linearGradient id="lazada_comp_svg__b"><stop offset="0" stop-color="#4eb745"></stop><stop offset="1" stop-color="#c8db30"></stop></linearGradient><linearGradient id="lazada_comp_svg__a"><stop offset="0" stop-color="#f6a51f"></stop><stop offset="1" stop-color="#ffd42a"></stop></linearGradient><linearGradient id="lazada_comp_svg__e" y2="0.5" x2="1.001" y1="0.5" x1="-0.001" gradientUnits="userSpaceOnUse"><stop stop-color="#ff9200" offset="0"></stop><stop stop-color="#f36d00" offset="0.29"></stop><stop stop-color="#f4680b" offset="0.32"></stop><stop stop-color="#f83c72" offset="0.57"></stop><stop stop-color="#fc1cbe" offset="0.78"></stop><stop stop-color="#fe08ed" offset="0.93"></stop><stop stop-color="#f0f" offset="1"></stop></linearGradient><linearGradient gradientUnits="userSpaceOnUse" x1="-0.001" y1="0.5" x2="1.001" y2="0.5" id="lazada_comp_svg__f"><stop offset="0" stop-color="#ffb900"></stop><stop offset="0.338" stop-color="#f38000"></stop><stop offset="0.567" stop-color="#f83c72"></stop><stop offset="0.78" stop-color="#fc1cbe"></stop><stop offset="0.93" stop-color="#fe08ed"></stop><stop offset="1" stop-color="#f0f"></stop></linearGradient><linearGradient id="lazada_comp_svg__h"><stop offset="0" stop-color="#ed6600"></stop><stop offset="1" stop-color="#f98200"></stop></linearGradient><linearGradient id="lazada_comp_svg__g"><stop offset="0" stop-color="#ee0a3f"></stop><stop offset="1" stop-color="#ee0a3f" stop-opacity="0"></stop></linearGradient><linearGradient xlink:href="#lazada_comp_svg__e" id="lazada_comp_svg__i" gradientUnits="userSpaceOnUse" x1="-0.001" y1="0.5" x2="1.001" y2="0.5"></linearGradient><linearGradient xlink:href="#lazada_comp_svg__f" id="lazada_comp_svg__j" gradientUnits="userSpaceOnUse" x1="-0.001" y1="0.5" x2="66.758" y2="-0.017"></linearGradient><linearGradient xlink:href="#lazada_comp_svg__g" id="lazada_comp_svg__k" x1="18.754" y1="49.006" x2="86.818" y2="11.32" gradientUnits="userSpaceOnUse"></linearGradient><linearGradient xlink:href="#lazada_comp_svg__h" id="lazada_comp_svg__m" x1="41.793" y1="39.349" x2="75.037" y2="12.569" gradientUnits="userSpaceOnUse"></linearGradient><linearGradient xlink:href="#lazada_comp_svg__g" id="lazada_comp_svg__l" gradientUnits="userSpaceOnUse" x1="18.754" y1="49.006" x2="86.818" y2="11.32"></linearGradient><linearGradient xlink:href="#lazada_comp_svg__h" id="lazada_comp_svg__n" gradientUnits="userSpaceOnUse" x1="41.793" y1="39.349" x2="75.037" y2="12.569"></linearGradient></defs><g fill-rule="evenodd" stroke-linecap="square" stroke-linejoin="bevel"><g fill="#000083" stroke="none"><path d="M167.682 15.038h9.294v44.717h16.02v8.827h-25.275l-.039-53.544M214.519 28.453a15.75 15.75 0 0112.619 6.066V29.25h8.67v39.41h-8.67V63.39a15.75 15.75 0 01-12.62 6.066c-10.81 0-19.014-9.235-19.014-20.511 0-11.277 8.205-20.493 19.015-20.493m1.575 7.894c-7.019 0-11.666 5.522-11.666 12.599s4.724 12.618 11.666 12.618c6.941 0 11.666-5.522 11.666-12.618 0-7.097-4.648-12.6-11.666-12.6M242.555 61.816l20.667-24.691h-20.357V29.25h31.555v6.941l-20.588 24.595h21.055v7.874h-32.332v-6.844M296.935 28.453a15.748 15.748 0 0112.618 6.066V29.25h8.671v39.41h-8.671V63.39a15.748 15.748 0 01-12.618 6.066c-10.81 0-18.996-9.235-18.996-20.511 0-11.277 8.187-20.493 18.996-20.493m1.575 7.894c-7.02 0-11.666 5.522-11.666 12.599s4.725 12.618 11.666 12.618c6.94 0 11.665-5.522 11.665-12.618 0-7.097-4.646-12.6-11.665-12.6M342.994 28.453a15.692 15.692 0 0112.599 6.066V11.87h8.67v56.79h-8.67v-5.268a15.692 15.692 0 01-12.599 6.066c-10.81 0-19.015-9.235-19.015-20.511 0-11.277 8.205-20.493 19.015-20.493m1.574 7.894c-7.019 0-11.665 5.522-11.665 12.599s4.744 12.618 11.665 12.618c6.923 0 11.666-5.522 11.666-12.618 0-7.097-4.647-12.6-11.666-12.6M389.033 28.453a15.69 15.69 0 0112.599 6.066V29.25h8.652v39.41h-8.69V63.39a15.692 15.692 0 01-12.6 6.066c-10.81 0-19.014-9.235-19.014-20.511 0-11.277 8.243-20.493 19.053-20.493m1.576 7.894c-7.02 0-11.667 5.522-11.667 12.599s4.744 12.618 11.667 12.618c6.92 0 11.665-5.522 11.665-12.618 0-7.097-4.648-12.6-11.665-12.6" fill-rule="nonzero"></path></g><path d="M33.737 54.716c-.479.003-.95-.12-1.366-.355-3.565-2.063-29.967-18.617-30.964-19.122A2.39 2.39 0 01.04 33.327v-23.22A2.513 2.513 0 011.175 7.95l.19-.109C3.92 6.256 12.47 1.038 13.823.287A2.05 2.05 0 0114.847 0c.338.004.67.088.97.246 0 0 11.964 7.799 13.795 8.495a9.438 9.438 0 004.097.861 9.178 9.178 0 004.59-1.12C40.087 7.54 51.52.287 51.642.287c.288-.174.62-.264.956-.26.361.002.715.101 1.024.287 1.558.86 12.157 7.348 12.607 7.635a2.458 2.458 0 011.188 2.131V33.3a2.363 2.363 0 01-1.365 1.912c-.997.546-27.317 17.1-30.95 19.122a2.732 2.732 0 01-1.366.382" fill="url(#lazada_comp_svg__j)" fill-rule="nonzero" transform="translate(-.049) scale(1.96487)"></path><path d="M33.6 54.716h.137c.478.003.95-.12 1.365-.355 3.565-2.063 29.954-18.617 30.95-19.122a2.363 2.363 0 001.366-1.912v-23.22a2.484 2.484 0 00-.259-1.133L33.6 27.399v27.317" fill="url(#lazada_comp_svg__l)" fill-rule="nonzero" transform="translate(-.049) scale(1.96487)"></path><path d="M33.6 54.716h.137c.478.003.95-.12 1.365-.355 3.565-2.063 29.954-18.617 30.95-19.122a2.363 2.363 0 001.366-1.912v-23.22a2.484 2.484 0 00-.259-1.133L33.6 27.399v27.317" fill="url(#lazada_comp_svg__n)" fill-rule="nonzero" transform="matrix(-1.94394 0 0 1.94394 131.058 .502)"></path></g></svg>