<svg xmlns="http://www.w3.org/2000/svg" viewBox="0 0 359 158" style="display: block; width: 160px; height: 64px;"><g fill="none" fill-rule="evenodd"><path d="M336.3 121.688c-4.642-1.103-6.279-1.697-6.279-3.57 0-2.581 3.285-3.147 4.772-3.147 2.8 0 5.96 1.664 7.15 3.244l5.32-5.081c-2.461-3.077-7.298-4.87-12.405-4.87-6.528 0-13.383 3.27-13.383 10.574 0 6.272 4.937 8.165 9.767 9.318 5.091 1.18 6.908 2.043 6.908 4.085 0 3.01-3.43 3.502-4.61 3.502-2.951 0-6.372-1.682-8.216-3.862l-5.476 5.527c2.992 3.304 8.112 5.292 13.363 5.292 8.818 0 14.051-4.187 14.051-11.094 0-6.61-6.404-8.831-10.962-9.918zM183.712 134.95c-5.44 0-8.693-4.834-8.693-9.507 0-4.635 3.324-9.637 8.693-9.637 5.838 0 8.74 4.928 8.74 9.507 0 4.789-3.162 9.637-8.74 9.637zm1.774-26.688c-4.126 0-7.165 1.797-10.034 4.475h-.17V91.254h-9.02v50.455h8.626v-4.597h.136c2.034 3.321 6.074 5.513 10.265 5.513 9.312 0 16.37-7.28 16.37-17.311 0-9.88-6.975-17.05-16.173-17.05zm-22.617.916h-11.633l-11.647 13.498h-.2V91.254h-9.02v50.455h9.02v-16.044h.201l12.083 16.044h11.87L149.5 123.932l13.37-14.753zm100.295 25.772c-5.883 0-8.562-4.995-8.562-9.637 0-4.579 2.68-9.507 8.562-9.507s8.56 4.928 8.56 9.507c0 4.642-2.678 9.637-8.56 9.637zm0-26.688c-10.264 0-17.713 7.171-17.713 17.05 0 10.224 7.615 17.4 17.713 17.4 10.097 0 17.712-7.244 17.712-17.4 0-9.879-7.45-17.05-17.712-17.05zm56.083.916h-11.633l-11.647 13.498h-.2V91.254h-9.02v50.455h9.02v-16.044h.2l12.083 16.044h11.87l-14.042-17.777 13.369-14.753zm-95.72 25.772c-5.884 0-8.563-4.995-8.563-9.637 0-4.579 2.68-9.507 8.562-9.507s8.562 4.928 8.562 9.507c0 4.642-2.68 9.637-8.562 9.637zm0-26.688c-10.265 0-17.713 7.171-17.713 17.05 0 10.224 7.614 17.4 17.712 17.4 10.098 0 17.712-7.244 17.712-17.4 0-9.879-7.449-17.05-17.712-17.05zM18.06 134.951c-5.577 0-8.749-4.848-8.749-9.637 0-4.579 2.912-9.507 8.749-9.507 5.37 0 8.692 5.002 8.692 9.637 0 4.673-3.25 9.507-8.692 9.507zm8.758-21.642h-.2c-1.274-1.403-4.726-5.046-10.332-5.046-9.197 0-16.284 7.171-16.284 17.05 0 10.032 6.54 17.312 15.851 17.312 4.228 0 8.2-2.23 10.502-4.826h.134v19.929h9.02v-48.549h-8.691v4.13zm54.377 28.4h9.02v-32.53h-9.02v32.53zm-16.402-14.694c0 3.822-2.503 7.936-7.167 7.936-3.594 0-5.514-2.553-5.514-7.805v-17.967h-9.02v20.19c0 6.718 3.366 13.256 12.368 13.256 4.245 0 7.8-3.327 9.592-5.783h.135v4.867h8.626v-32.53h-9.02v17.836zm48.916 7.936c-5.491 0-8.26-4.886-8.26-9.61 0-4.725 3.004-9.403 7.997-9.403 2.338 0 5.294 1.167 6.454 2.81l5.814-5.769c-2.814-2.952-7.3-4.716-12.268-4.716-10.112 0-17.45 7.227-17.45 17.18 0 10.117 7.256 17.182 17.647 17.182 4.945 0 9.514-1.44 12.222-4.341l-5.655-6.043c-1.306 1.584-4.044 2.71-6.5 2.71zM354.527 137.766v-1.198h.691c.396 0 .841.116.841.575 0 .508-.494.623-.922.623h-.61zm2.289-.607c0-.902-.774-1.23-1.565-1.23h-1.481v4.198h.757v-1.754h.544l.988 1.754h.921l-1.135-1.837c.592-.13.97-.524.97-1.131zm-1.581 4.034c-1.745 0-3.162-1.427-3.162-3.148a3.156 3.156 0 013.162-3.15 3.156 3.156 0 013.161 3.15c0 1.721-1.416 3.148-3.161 3.148zm0-6.87c-2.075 0-3.753 1.656-3.753 3.722s1.678 3.689 3.753 3.689 3.754-1.623 3.754-3.69c0-2.065-1.68-3.722-3.754-3.722z" fill="#000"></path><path d="M135.634 38.706c0-20.899 17.013-37.838 37.998-37.838 20.986 0 37.998 16.94 37.998 37.838 0 20.897-17.012 37.839-37.998 37.839-20.985 0-37.998-16.942-37.998-37.839" fill="#2CA01C"></path><path d="M186.301 23.992h-2.11v5.466h2.11c5.122 0 9.289 4.15 9.289 9.25 0 5.099-4.167 9.249-9.289 9.249h-5.073v-28.59c0-3.018-2.457-5.465-5.488-5.465v39.52H186.3c8.161 0 14.777-6.588 14.777-14.715 0-8.127-6.616-14.715-14.777-14.715m-40.116 14.713c0 8.126 6.616 14.715 14.777 14.715h2.111v-5.466h-2.111c-5.121 0-9.288-4.149-9.288-9.25 0-5.1 4.167-9.249 9.288-9.249h5.073v28.59c0 3.018 2.457 5.465 5.489 5.465V23.99h-10.562c-8.161 0-14.777 6.589-14.777 14.715" fill="#FFF"></path><path d="M50.95 99.799h3.116V87.386h-3.115v12.413zm5.3-12.42v2.749h3.494v9.67h3.116v-9.67h3.494v-2.75H56.25zm-11.606 6.834c0 1.655-.936 3.361-2.908 3.361-2 0-2.337-1.835-2.337-3.31v-6.878h-3.116v7.758c0 2.535 1.349 5.016 4.596 5.016 1.843 0 3.324-1.111 3.869-2.353h.052V99.8h2.96V87.386h-3.116v6.827zm-20.635-4.085h3.494v9.67h3.116v-9.67h3.494v-2.75H24.009v2.75zm5.052-4.368a1.88 1.88 0 001.883-1.875 1.88 1.88 0 00-1.883-1.875 1.88 1.88 0 00-1.883 1.875 1.88 1.88 0 001.883 1.875zm32.241 0c1.04 0 1.882-.84 1.882-1.875a1.879 1.879 0 00-1.882-1.875 1.88 1.88 0 00-1.883 1.875 1.88 1.88 0 001.883 1.875zM4.635 99.8H7.75V87.386H4.635v12.413zm13.19-12.776c-1.844 0-3.324 1.113-3.869 2.354h-.052v-1.991h-2.96v12.413h3.115V92.97c0-1.654.936-3.362 2.909-3.362 2 0 2.337 1.837 2.337 3.31v6.88h3.116V92.04c0-2.535-1.35-5.018-4.597-5.018z" fill="#000"></path></g></svg>