<svg xmlns="http://www.w3.org/2000/svg" viewBox="0 0 120 38" data-test="FNAC" style="display: block; width: 120px; height: 64px;"><path d="M37.074 11.726c-3.923 1.054-5.472 2.577-6.072 3.492v-3.353H10.635c-.577-6.54 6.15-6.402 6.15-6.402 6.586-.194 6.852 4.06 6.852 4.06h7.365c0-7.656-10.583-8.53-10.583-8.53C10.054.167 6.484 3.67 6.484 3.67c-3.259 2.794-3.173 7.194-3.109 8.195H0l.071 5.02h3.323v19.76h7.361v-19.76l12.893.003v19.757h7.358V22.766c.383-2.371 1.972-5.602 7.68-6.083 0 0 8.344-1.367 9.44 6.102v13.856h7.357V19.936c-1.684-11.877-18.41-8.21-18.41-8.21zM86.999 21.74c.63-8.605-8.475-9.83-8.475-9.83-8.116-1.352-12.777.015-12.852.038-7.939 1.819-7.965 8.142-7.965 8.142h7.53s.068-4.93 8.115-4.295c0 0 5.805.254 6.147 2.88 0 0 1.89 3.129-6.147 3.592-8.085.474-17.7.344-16.68 7.873 0 0-.191 7.23 13.024 6.991 0 0 7.054.217 9.945-3.387v.112l.244 2.786h7.305l-.187-14.902h-.004zm-8.322 8.22c-1.845 2.242-4.06 2.929-6.645 3.033-2.287.094-7.177.512-7.279-3.226-.097-3.522 5.895-3.343 9.92-3.612 0 0 4.034-.015 4.837-1.11 0 0 .052-.111.06 0 .008.116.713 2.966-.892 4.916zm33.789-1.643c-1.121 2.357-3.034 3.713-7.751 3.758-2.026.018-8.566-.695-8.892-7.683l-.004-.254c.206-6.984 6.889-7.705 9.057-7.753 4.016-.082 6.326 1.184 7.515 3.533l7.534-.067c-.068-.912-.195-1.39-.679-2.372-1.511-2.801-5.325-6.275-14.813-5.994-2.677.078-5.809.478-7.759 1.243-3.274 1.289-8.88 4.717-8.516 12l-.008-.003c.383 7.619 5.67 9.856 8.693 11.114 1.995.833 4.579 1.08 7.823 1.14 9.566.182 13.238-3.511 14.696-6.342.465-.994.585-1.472.638-2.387l-7.534.067z" fill="#E1A925"></path></svg>